{
  "accessors": [
    {
      "bufferView": 2,
      "componentType": 5126,
      "count": 1911,
      "max": [
        60.93108367919922,
        27.387821197509766,
        22.38866424560547
      ],
      "min": [
        44.25172424316406,
        0.03202247619628906,
        -22.097515106201172
      ],
      "type": "VEC3"
    },
    {
      "bufferView": 2,
      "byteOffset": 22932,
      "componentType": 5126,
      "count": 1911,
      "max": [
        0.9999995827674866,
        1.0,
        0.9999822974205017
      ],
      "min": [
        -0.9999964833259583,
        -0.9999741911888123,
        -0.9997442364692688
      ],
      "type": "VEC3"
    },
    {
      "bufferView": 1,
      "componentType": 5126,
      "count": 1911,
      "max": [
        0.9985886812210083,
        0.9986398816108704
      ],
      "min": [
        0.002502627205103636,
        0.011998176574707031
      ],
      "type": "VEC2"
    },
    {
      "bufferView": 1,
      "byteOffset": 15288,
      "componentType": 5126,
      "count": 1911,
      "max": [
        0.9985886812210083,
        0.9986398816108704
      ],
      "min": [
        0.002502627205103636,
        0.011998176574707031
      ],
      "type": "VEC2"
    },
    {
      "bufferView": 0,
      "componentType": 5125,
      "count": 10128,
      "type": "SCALAR"
    },
    {
      "bufferView": 2,
      "byteOffset": 45864,
      "componentType": 5126,
      "count": 250,
      "max": [
        50.25718688964844,
        16.003097534179688,
        18.78754234313965
      ],
      "min": [
        46.72821807861328,
        12.714641571044922,
        15.428963661193848
      ],
      "type": "VEC3"
    },
    {
      "bufferView": 2,
      "byteOffset": 48864,
      "componentType": 5126,
      "count": 250,
      "max": [
        0.9978194236755371,
        0.9819519519805908,
        0.9925244450569153
      ],
      "min": [
        -0.9941964745521545,
        -0.9819527268409729,
        -0.9925239682197571
      ],
      "type": "VEC3"
    },
    {
      "bufferView": 1,
      "byteOffset": 30576,
      "componentType": 5126,
      "count": 250,
      "max": [
        0.9900761246681213,
        0.4062870144844055
      ],
      "min": [
        0.8409057259559631,
        0.02562887780368328
      ],
      "type": "VEC2"
    },
    {
      "bufferView": 1,
      "byteOffset": 32576,
      "componentType": 5126,
      "count": 250,
      "max": [
        0.9900761246681213,
        0.4062870144844055
      ],
      "min": [
        0.8409057259559631,
        0.02562887780368328
      ],
      "type": "VEC2"
    },
    {
      "bufferView": 0,
      "byteOffset": 40512,
      "componentType": 5125,
      "count": 1392,
      "type": "SCALAR"
    },
    {
      "bufferView": 2,
      "byteOffset": 51864,
      "componentType": 5126,
      "count": 250,
      "max": [
        58.95522689819336,
        16.819631576538086,
        19.070680618286133
      ],
      "min": [
        53.985984802246094,
        12.159525871276855,
        14.412151336669922
      ],
      "type": "VEC3"
    },
    {
      "bufferView": 2,
      "byteOffset": 54864,
      "componentType": 5126,
      "count": 250,
      "max": [
        0.9998435378074646,
        0.9971118569374084,
        0.9903375506401062
      ],
      "min": [
        -0.9983243346214294,
        -0.9971118569374084,
        -0.9903373122215271
      ],
      "type": "VEC3"
    },
    {
      "bufferView": 1,
      "byteOffset": 34576,
      "componentType": 5126,
      "count": 250,
      "max": [
        0.9793053269386292,
        0.24487024545669556
      ],
      "min": [
        0.4798332750797272,
        0.0049264878034591675
      ],
      "type": "VEC2"
    },
    {
      "bufferView": 1,
      "byteOffset": 36576,
      "componentType": 5126,
      "count": 250,
      "max": [
        0.9793053269386292,
        0.24487024545669556
      ],
      "min": [
        0.4798332750797272,
        0.0049264878034591675
      ],
      "type": "VEC2"
    },
    {
      "bufferView": 0,
      "byteOffset": 46080,
      "componentType": 5125,
      "count": 1392,
      "type": "SCALAR"
    }
  ],
  "asset": {
    "extras": {
      "author": "Muhammed Reca Mermutluoğlu (https://sketchfab.com/3drec)",
      "license": "CC-BY-4.0 (http://creativecommons.org/licenses/by/4.0/)",
      "source": "https://sketchfab.com/3d-models/3d-fish-stylze-lowpoly-free-73a1eb92153a436e8332cb42bf0d4d9d",
      "title": "3D  Fish Stylze Lowpoly (Free("
    },
    "generator": "Sketchfab-12.78.0",
    "version": "2.0"
  },
  "bufferViews": [
    {
      "buffer": 0,
      "byteLength": 51648,
      "name": "floatBufferViews",
      "target": 34963
    },
    {
      "buffer": 0,
      "byteLength": 38576,
      "byteOffset": 51648,
      "byteStride": 8,
      "name": "floatBufferViews",
      "target": 34962
    },
    {
      "buffer": 0,
      "byteLength": 57864,
      "byteOffset": 90224,
      "byteStride": 12,
      "name": "floatBufferViews",
      "target": 34962
    }
  ],
  "buffers": [
    {
      "byteLength": 148088,
      "uri": "scene.bin"
    }
  ],
  "images": [
    {
      "uri": "textures/fish_mat_baseColor.png"
    },
    {
      "uri": "textures/fish_mat_metallicRoughness.png"
    }
  ],
  "materials": [
    {
      "doubleSided": true,
      "name": "fish_mat",
      "pbrMetallicRoughness": {
        "baseColorTexture": {
          "index": 0
        },
        "metallicRoughnessTexture": {
          "index": 1
        }
      }
    }
  ],
  "meshes": [
    {
      "name": "fish_body_fish_mat_0",
      "primitives": [
        {
          "attributes": {
            "NORMAL": 1,
            "POSITION": 0,
            "TEXCOORD_0": 2,
            "TEXCOORD_1": 3
          },
          "indices": 4,
          "material": 0,
          "mode": 4
        }
      ]
    },
    {
      "name": "fish_r_eye_fish_mat_0",
      "primitives": [
        {
          "attributes": {
            "NORMAL": 6,
            "POSITION": 5,
            "TEXCOORD_0": 7,
            "TEXCOORD_1": 8
          },
          "indices": 9,
          "material": 0,
          "mode": 4
        }
      ]
    },
    {
      "name": "fish_l_eye_fish_mat_0",
      "primitives": [
        {
          "attributes": {
            "NORMAL": 11,
            "POSITION": 10,
            "TEXCOORD_0": 12,
            "TEXCOORD_1": 13
          },
          "indices": 14,
          "material": 0,
          "mode": 4
        }
      ]
    }
  ],
  "nodes": [
    {
      "children": [
        1
      ],
      "matrix": [
        0.4779346287250519,
        0.0,
        0.0,
        0.0,
        0.0,
        1.0612280581524566e-16,
        -0.4779346287250519,
        0.0,
        0.0,
        0.4779346287250519,
        1.0612280581524566e-16,
        0.0,
        0.0,
        0.0,
        0.0,
        1.0
      ],
      "name": "Sketchfab_model"
    },
    {
      "children": [
        2
      ],
      "matrix": [
        0.009999999776482582,
        0.0,
        0.0,
        0.0,
        0.0,
        0.0,
        0.009999999776482582,
        0.0,
        0.0,
        -0.009999999776482582,
        0.0,
        0.0,
        0.0,
        0.0,
        0.0,
        1.0
      ],
      "name": "9067895336e046acb5708017e8947ca3.fbx"
    },
    {
      "children": [
        3
      ],
      "name": "RootNode"
    },
    {
      "children": [
        4,
        6,
        8
      ],
      "matrix": [
        1.0,
        0.0,
        0.0,
        0.0,
        0.0,
        1.0,
        0.0,
        0.0,
        0.0,
        0.0,
        1.0,
        0.0,
        -51.90878677368164,
        0.0,
        -2.407855749130249,
        1.0
      ],
      "name": "fish"
    },
    {
      "children": [
        5
      ],
      "name": "fish_body"
    },
    {
      "mesh": 0,
      "name": "fish_body_fish_mat_0"
    },
    {
      "children": [
        7
      ],
      "name": "fish_r_eye"
    },
    {
      "mesh": 1,
      "name": "fish_r_eye_fish_mat_0"
    },
    {
      "children": [
        9
      ],
      "name": "fish_l_eye"
    },
    {
      "mesh": 2,
      "name": "fish_l_eye_fish_mat_0"
    }
  ],
  "samplers": [
    {
      "magFilter": 9729,
      "minFilter": 9987,
      "wrapS": 10497,
      "wrapT": 10497
    }
  ],
  "scene": 0,
  "scenes": [
    {
      "name": "Sketchfab_Scene",
      "nodes": [
        0
      ]
    }
  ],
  "textures": [
    {
      "sampler": 0,
      "source": 0
    },
    {
      "sampler": 0,
      "source": 1
    }
  ]
}
